<svg data-v-423bf9ae="" xmlns="http://www.w3.org/2000/svg" viewBox="0 0 530 94" class="iconLeft"><!----><!----><!----><g data-v-423bf9ae="" id="c6894cbf-8f25-4ef2-8327-bd36326d3009" fill="#FFFFFF" transform="matrix(6.302520751953125,0,0,6.302520751953125,124.36463165283203,-7.2831244468688965)"><path d="M7.73 3.82L6.01 3.82L3.68 7.42L1.34 3.82L-0.38 3.82L2.93 8.82L2.93 13.15L4.42 13.15L4.42 8.84ZM11.42 13.34C13.50 13.34 14.96 11.81 14.96 9.84C14.96 7.89 13.50 6.36 11.42 6.36C9.30 6.36 7.86 7.89 7.86 9.84C7.86 11.81 9.30 13.34 11.42 13.34ZM11.42 12.13C10.19 12.13 9.33 11.14 9.33 9.84C9.33 8.56 10.19 7.57 11.42 7.57C12.63 7.57 13.49 8.56 13.49 9.84C13.49 11.14 12.63 12.13 11.42 12.13ZM19.24 13.33C20.68 13.33 22.20 12.67 22.20 10.31L22.20 6.53L20.78 6.53L20.78 10.32C20.78 11.43 20.24 12.12 19.24 12.12C18.23 12.12 17.69 11.43 17.69 10.32L17.69 6.53L16.27 6.53L16.27 10.31C16.27 12.67 17.79 13.33 19.24 13.33ZM26.96 6.36C26.18 6.36 25.65 6.74 25.27 7.41L25.10 6.53L23.87 6.53L23.87 13.15L25.29 13.15L25.29 9.70C25.29 8.62 25.86 7.66 26.89 7.66C27.13 7.66 27.34 7.70 27.53 7.79L27.96 6.58C27.78 6.47 27.40 6.36 26.96 6.36ZM34.96 3.82L34.96 7.73L30.63 7.73L30.63 3.82L29.14 3.82L29.14 13.15L30.63 13.15L30.63 8.94L34.96 8.94L34.96 13.15L36.44 13.15L36.44 3.82ZM41.68 13.34C43.76 13.34 45.22 11.81 45.22 9.84C45.22 7.89 43.76 6.36 41.68 6.36C39.56 6.36 38.12 7.89 38.12 9.84C38.12 11.81 39.56 13.34 41.68 13.34ZM41.68 12.13C40.45 12.13 39.59 11.14 39.59 9.84C39.59 8.56 40.45 7.57 41.68 7.57C42.89 7.57 43.75 8.56 43.75 9.84C43.75 11.14 42.89 12.13 41.68 12.13ZM53.91 6.36C52.75 6.36 52.16 6.80 51.74 7.41C51.32 6.66 50.59 6.36 49.83 6.36C49.07 6.36 48.39 6.72 48.01 7.38L47.85 6.53L46.61 6.53L46.61 13.15L48.02 13.15L48.02 9.26C48.11 8.15 48.64 7.57 49.48 7.57C50.39 7.57 50.75 8.31 50.75 9.39L50.75 13.15L52.16 13.15L52.16 9.60C52.16 8.30 52.69 7.57 53.61 7.57C54.53 7.57 54.89 8.31 54.89 9.38L54.89 13.15L56.31 13.15L56.31 9.28C56.31 7.12 55.17 6.36 53.91 6.36ZM64.28 9.70C64.28 7.73 62.96 6.36 61.03 6.36C59.05 6.36 57.62 7.89 57.62 9.84C57.62 11.80 59.03 13.31 61.21 13.31C62.34 13.31 63.31 12.92 63.90 12.25L62.93 11.46C62.50 11.94 61.94 12.19 61.19 12.19C59.95 12.19 59.21 11.33 59.11 10.15L64.28 10.15ZM61.03 7.50C62.07 7.50 62.74 8.12 62.88 9.17L59.16 9.17C59.37 8.17 60.05 7.50 61.03 7.50Z"></path></g><!----><g data-v-423bf9ae="" id="d93b5db9-7860-4def-a6df-0fbe13d82b8c" transform="matrix(1.0197222232818604,0,0,1.0197222232818604,0.01227385550737381,-3.875140428543091)" stroke="none" fill="#FFFFFF"><path d="M99.511 38.569L50.993 4.606a1.489 1.489 0 0 0-1.708 0L.779 38.569a1.492 1.492 0 0 0-.364 2.073l6.606 9.434a1.485 1.485 0 0 0 2.074.366l41.051-28.748 41.049 28.748a1.489 1.489 0 0 0 2.074-.366l6.607-9.434a1.492 1.492 0 0 0-.365-2.073z"></path><path d="M87.456 53.667l-36.457-25.53a1.49 1.49 0 0 0-1.707 0L12.641 53.803a1.486 1.486 0 0 0-.635 1.22v39.454c0 .82.667 1.488 1.49 1.488h25.502a1.49 1.49 0 0 0 1.489-1.488V60.095h19.32v34.382c0 .82.666 1.488 1.489 1.488h25.309c.823 0 1.486-.668 1.486-1.488V54.886a1.488 1.488 0 0 0-.635-1.219zM74.213 15.768l11.411 7.99a1.494 1.494 0 0 0 1.542.102c.49-.256.801-.766.801-1.321V5.678c0-.822-.667-1.488-1.489-1.488H75.065c-.822 0-1.488.667-1.488 1.488v8.871c-.001.484.235.94.636 1.219z"></path></g><!----></svg>